<svg fill="none" height="122" viewBox="0 0 665 122" width="665" xmlns="http://www.w3.org/2000/svg"><path d="m56.432 99.32-56.064-27.264v-14.464l56.064-27.264v12.928l-38.272 18.304c-1.7067.768-3.328 1.4507-4.864 2.048-1.536.512-2.688.8533-3.456 1.024.8533.1707 2.048.512 3.584 1.024 1.6213.512 3.2 1.152 4.736 1.92l38.272 18.432zm484.08 21.76 45.056-120.320005h14.464l-8.32 22.272005 72.96 34.56v14.464l-56.064 27.264v-13.312l38.272-18.176c1.707-.768 3.371-1.3653 4.992-1.792 1.707-.512 2.987-.8533 3.84-1.024-.939-.1707-2.261-.4693-3.968-.896-1.621-.512-3.243-1.152-4.864-1.92l-59.392-28.16-32.512 87.04z" fill="#bfbfbf"/><path d="m105.534 108.28c-6.3147 0-11.7333-1.024-16.256-3.072-4.5227-2.133-8.0213-5.12-10.496-8.96-2.4747-3.9253-3.712-8.576-3.712-13.952h13.696c0 4.2667 1.4933 7.6373 4.48 10.112 2.9867 2.3893 7.125 3.584 12.416 3.584 4.949 0 8.832-1.1947 11.648-3.584s4.224-5.6747 4.224-9.856c0-3.4987-.981-6.528-2.944-9.088-1.877-2.56-4.608-4.3093-8.192-5.248l-11.776-3.456c-6.8267-1.9627-12.1173-5.2907-15.872-9.984-3.6693-4.7787-5.504-10.4533-5.504-17.024 0-5.12 1.152-9.6 3.456-13.44s5.5893-6.8267 9.856-8.96 9.3013-3.2 15.104-3.2c8.533 0 15.36 2.304 20.48 6.912 5.205 4.608 7.851 10.7947 7.936 18.56h-13.824c0-4.096-1.323-7.296-3.968-9.6-2.56-2.3893-6.187-3.584-10.88-3.584-4.523 0-8.064 1.1093-10.624 3.328-2.56 2.1333-3.84 5.1627-3.84 9.088 0 3.4987.9387 6.528 2.816 9.088 1.9627 2.56 4.736 4.352 8.32 5.376l11.904 3.584c6.827 1.8773 12.075 5.2053 15.744 9.984s5.504 10.496 5.504 17.152c0 5.2053-1.237 9.8133-3.712 13.824-2.475 3.9253-5.931 6.997-10.368 9.216-4.437 2.133-9.643 3.2-15.616 3.2zm69.326 0c-7.339 0-13.141-1.877-17.408-5.632-4.181-3.84-6.272-9.0453-6.272-15.616 0-6.656 2.219-11.8613 6.656-15.616 4.523-3.84 10.709-5.76 18.56-5.76h19.584v-6.528c0-3.84-1.195-6.8267-3.584-8.96s-5.76-3.2-10.112-3.2c-3.84 0-7.04.8533-9.6 2.56-2.56 1.6213-4.053 3.7973-4.48 6.528h-13.568c.768-6.3147 3.669-11.3493 8.704-15.104 5.12-3.7547 11.563-5.632 19.328-5.632 8.363 0 14.976 2.1333 19.84 6.4 4.864 4.1813 7.296 9.8987 7.296 17.152v48.128h-13.44v-12.928h-2.304l2.304-2.56c0 5.12-1.963 9.216-5.888 12.288-3.925 2.987-9.131 4.48-15.616 4.48zm4.096-10.624c4.949 0 9.003-1.2373 12.16-3.712 3.243-2.56 4.864-5.8027 4.864-9.728v-9.216h-19.328c-3.584 0-6.443.9813-8.576 2.944-2.048 1.9627-3.072 4.6507-3.072 8.064 0 3.584 1.237 6.4427 3.712 8.576 2.475 2.048 5.888 3.072 10.24 3.072zm51.662 9.344v-12.544h24.704v-45.312h-21.504v-12.544h34.944v57.856h22.656v12.544zm30.08-82.56c-2.987 0-5.376-.768-7.168-2.304-1.792-1.6213-2.688-3.7547-2.688-6.4 0-2.7307.896-4.864 2.688-6.4 1.792-1.62134 4.181-2.43201 7.168-2.43201s5.376.81067 7.168 2.43201c1.792 1.536 2.688 3.6693 2.688 6.4 0 2.6453-.896 4.7787-2.688 6.4-1.792 1.536-4.181 2.304-7.168 2.304zm74.702 83.84c-5.717 0-10.752-1.109-15.104-3.328-4.267-2.304-7.552-5.504-9.856-9.6s-3.456-8.8747-3.456-14.336v-18.432c0-5.5467 1.152-10.3253 3.456-14.336 2.304-4.096 5.589-7.2533 9.856-9.472 4.352-2.304 9.387-3.456 15.104-3.456 5.803 0 10.837 1.152 15.104 3.456 4.267 2.2187 7.552 5.376 9.856 9.472 2.304 4.0107 3.456 8.7893 3.456 14.336v12.544h-43.52v5.888c0 5.2053 1.28 9.1733 3.84 11.904 2.645 2.7307 6.443 4.096 11.392 4.096 4.011 0 7.253-.6827 9.728-2.048 2.475-1.4507 4.011-3.5413 4.608-6.272h13.696c-1.024 5.9733-4.096 10.752-9.216 14.336-5.12 3.499-11.435 5.248-18.944 5.248zm15.104-41.472v-4.352c0-5.12-1.28-9.088-3.84-11.904s-6.315-4.224-11.264-4.224c-4.864 0-8.619 1.408-11.264 4.224-2.56 2.816-3.84 6.8267-3.84 12.032v3.2l31.232-.128zm50.51 40.192v-50.432h-19.968v-12.544h19.968v-11.392c0-5.888 1.877-10.5387 5.632-13.952s8.875-5.12 15.36-5.12h20.608v12.288h-20.352c-2.389 0-4.267.5973-5.632 1.792-1.28 1.1947-1.92 2.9013-1.92 5.12v11.264h27.904v12.544h-27.904v50.432z" fill="#3999d3"/></svg>